HIERARCHY
ROOT Hips
{
	OFFSET 0.000000 0.000000 0.000000
	CHANNELS 6 Xposition Yposition Zposition Xrotation Yrotation Zrotation
	JOINT Chest
	{
		OFFSET 0.000000 0.009282 11.569106
		CHANNELS 3 Xrotation Yrotation Zrotation
		JOINT Chest2
		{
			OFFSET 0.000000 -0.016863 9.269641
			CHANNELS 3 Xrotation Yrotation Zrotation
			JOINT Chest3
			{
				OFFSET 0.000000 0.000000 8.374491
				CHANNELS 3 Xrotation Yrotation Zrotation
				JOINT Chest4
				{
					OFFSET 0.000000 0.000000 8.374493
					CHANNELS 3 Xrotation Yrotation Zrotation
					JOINT Neck
					{
						OFFSET 0.000000 -0.000001 12.152554
						CHANNELS 3 Xrotation Yrotation Zrotation
						JOINT Head
						{
							OFFSET 0.000000 -0.040100 7.802319
							CHANNELS 3 Xrotation Yrotation Zrotation
							End Site
							{
								OFFSET 0.000000 -0.020946 14.853096
							}
						}
					}
					JOINT RightCollar
					{
						OFFSET -2.894404 0.000000 6.791374
						CHANNELS 3 Xrotation Yrotation Zrotation
						JOINT RightShoulder
						{
							OFFSET -13.574684 0.000000 0.000000
							CHANNELS 3 Xrotation Yrotation Zrotation
							JOINT RightElbow
							{
								OFFSET -23.923903 0.000000 0.000000
								CHANNELS 3 Xrotation Yrotation Zrotation
								JOINT RightWrist
								{
									OFFSET -19.846718 -0.012765 0.000000
									CHANNELS 3 Xrotation Yrotation Zrotation
									End Site
									{
										OFFSET -14.973145 0.000000 0.000000
									}
								}
							}
						}
					}
					JOINT LeftCollar
					{
						OFFSET 2.894404 0.000000 6.791374
						CHANNELS 3 Xrotation Yrotation Zrotation
						JOINT LeftShoulder
						{
							OFFSET 13.574684 0.000000 0.000000
							CHANNELS 3 Xrotation Yrotation Zrotation
							JOINT LeftElbow
							{
								OFFSET 23.923903 0.000000 0.000000
								CHANNELS 3 Xrotation Yrotation Zrotation
								JOINT LeftWrist
								{
									OFFSET 19.846718 -0.012765 0.000000
									CHANNELS 3 Xrotation Yrotation Zrotation
									End Site
									{
										OFFSET 14.973145 0.000000 0.000000
									}
								}
							}
						}
					}
				}
			}
		}
	}
	JOINT RightHip
	{
		OFFSET -9.469263 -0.004642 0.045487
		CHANNELS 3 Xrotation Yrotation Zrotation
		JOINT RightKnee
		{
			OFFSET 0.000000 -0.002666 -40.478676
			CHANNELS 3 Xrotation Yrotation Zrotation
			JOINT RightAnkle
			{
				OFFSET 0.000000 -0.049110 -35.224068
				CHANNELS 3 Xrotation Yrotation Zrotation
				JOINT RightToe
				{
					OFFSET 0.000000 -12.539530 -6.151390
					CHANNELS 3 Xrotation Yrotation Zrotation
					End Site
					{
						OFFSET 0.000000 -5.044995 -1.291870
					}
				}
			}
		}
	}
	JOINT LeftHip
	{
		OFFSET 9.469263 -0.004642 0.045487
		CHANNELS 3 Xrotation Yrotation Zrotation
		JOINT LeftKnee
		{
			OFFSET 0.000000 -0.002666 -40.478676
			CHANNELS 3 Xrotation Yrotation Zrotation
			JOINT LeftAnkle
			{
				OFFSET 0.000000 -0.049110 -35.224068
				CHANNELS 3 Xrotation Yrotation Zrotation
				JOINT LeftToe
				{
					OFFSET 0.000000 -12.539530 -6.151390
					CHANNELS 3 Xrotation Yrotation Zrotation
					End Site
					{
						OFFSET 0.000000 -5.044995 -1.291870
					}
				}
			}
		}
	}
}
MOTION
Frames: 11
Frame Time: 0.016667
-9.353061 -7.075642 83.101891 1.645817 5.744947 -107.945013 3.635892 0.616050 2.227071 1.613800 0.267858 1.020908 1.613800 0.267858 1.020908 1.210799 0.198200 0.766394 24.300642 -1.104614 -0.806998 8.932882 -1.825014 -1.752229 -1.808801 -10.515332 -6.761570 -49.660755 -45.356387 -19.970640 -25.670522 -34.756002 24.317814 -21.060712 -20.638393 -22.843149 4.205528 9.741627 -7.316651 -62.363582 40.217199 25.204433 -40.604553 30.647243 -19.926548 -67.634944 -2.265673 -27.979595 4.753514 0.943464 -1.137725 5.845572 -2.159619 -8.960282 -4.283762 1.402890 1.638820 0.008265 -0.122363 -0.009969 7.041023 1.033720 2.126920 2.626417 -0.781673 -0.151376 -4.117462 0.243957 1.148098 0.057464 0.185536 0.001669 
-9.322339 -7.087821 83.106834 1.651061 5.785159 -107.922146 3.643713 0.625147 2.248715 1.617416 0.270854 1.028726 1.617418 0.270854 1.028730 1.213522 0.200420 0.772270 24.312239 -1.027603 -0.319944 8.959030 -1.804321 -0.840283 -1.798075 -10.507639 -6.775659 -49.455580 -45.268694 -19.918315 -25.427106 -34.951796 24.362750 -21.133679 -20.830648 -22.929155 4.218862 9.745364 -7.319433 -62.009095 40.205475 25.051481 -40.228305 30.800584 -20.237811 -67.465515 -2.167100 -28.071297 4.698300 0.959358 -1.069362 5.994215 -2.186016 -9.007577 -4.315501 1.446485 1.617918 -0.003573 -0.129018 -0.010248 7.007918 1.030533 2.136336 2.726680 -0.766790 -0.182385 -4.158486 0.225473 1.141850 0.053142 0.153673 0.002659 
-9.292064 -7.103660 83.112106 1.653446 5.816943 -107.884627 3.643578 0.627870 2.269308 1.618151 0.270297 1.035163 1.618153 0.270297 1.035163 1.214075 0.199984 0.777094 24.338700 -0.942819 0.128249 9.013819 -1.759592 0.002572 -1.811789 -10.487855 -6.790629 -49.266971 -45.111740 -19.782675 -25.301056 -35.180221 24.378381 -21.234928 -20.921660 -22.974682 4.191153 9.723963 -7.302743 -61.685508 40.256087 24.789847 -40.123567 30.956746 -20.354946 -67.335591 -2.063337 -28.106860 4.644483 0.975587 -1.013798 6.124335 -2.213409 -9.041918 -4.336704 1.488583 1.575033 -0.015442 -0.131967 -0.011125 6.983729 1.030604 2.122754 2.783319 -0.755394 -0.189548 -4.171226 0.212304 1.142853 0.048207 0.124496 0.003127 
-9.265477 -7.120394 83.117332 1.654326 5.838943 -107.835409 3.646825 0.629145 2.285056 1.619733 0.269330 1.039329 1.619733 0.269330 1.039331 1.215260 0.199245 0.780215 24.354320 -0.852120 0.538509 9.048954 -1.694389 0.777165 -1.857926 -10.461487 -6.807535 -49.016579 -44.969207 -19.512566 -25.347997 -35.388508 24.424053 -21.318185 -20.751581 -22.892685 4.138668 9.696707 -7.315447 -61.434458 40.304632 24.439682 -39.934193 30.893519 -20.480073 -67.213685 -2.038513 -28.081442 4.609039 0.984546 -0.974060 6.203523 -2.227434 -9.055620 -4.336018 1.519496 1.496521 -0.023416 -0.128652 -0.010581 6.970306 1.029500 2.090381 2.800133 -0.743463 -0.171462 -4.163291 0.203879 1.114581 0.043943 0.097595 0.002571 
-9.245599 -7.136357 83.122902 1.649183 5.855777 -107.773972 3.655120 0.632082 2.288177 1.623074 0.270099 1.038344 1.623074 0.270099 1.038343 1.217766 0.199819 0.779481 24.351759 -0.764574 0.908598 9.050358 -1.625066 1.477130 -1.957396 -10.433141 -6.832582 -48.750687 -44.843624 -19.159755 -25.490853 -35.556117 24.498232 -21.448464 -20.331002 -22.709713 4.053477 9.662775 -7.329035 -61.164023 40.341945 24.025341 -39.504455 30.689280 -20.731386 -67.041339 -2.119058 -28.192866 4.602640 1.001758 -0.966996 6.222333 -2.244776 -9.058713 -4.317006 1.542800 1.446269 -0.024922 -0.117709 -0.008654 6.969235 1.036148 2.076878 2.781619 -0.742821 -0.154546 -4.135452 0.211348 1.074672 0.037585 0.069554 0.001208 
-9.233829 -7.149788 83.129112 1.641717 5.863538 -107.702610 3.660102 0.639552 2.280192 1.624746 0.272808 1.032949 1.624746 0.272807 1.032943 1.219023 0.201861 0.775435 24.332896 -0.696294 1.231522 9.021296 -1.579706 2.085715 -2.140244 -10.404780 -6.887552 -48.526527 -44.679078 -18.804429 -25.637171 -35.716842 24.560933 -21.602066 -19.857511 -22.493830 3.968643 9.610653 -7.355268 -60.833756 40.359776 23.559407 -38.983076 30.537253 -21.064747 -66.732403 -2.283969 -28.523157 4.616670 1.015068 -0.979327 6.196024 -2.255458 -9.076762 -4.284793 1.552149 1.420446 -0.024952 -0.100260 -0.007403 6.977136 1.040274 2.100242 2.734373 -0.740803 -0.176463 -4.091431 0.220538 1.011427 0.027772 0.044641 0.000777 
-9.228332 -7.161886 83.135254 1.624945 5.854194 -107.623222 3.656339 0.652581 2.269689 1.622972 0.278749 1.025402 1.622973 0.278749 1.025396 1.217699 0.206342 0.769792 24.300244 -0.651495 1.500857 8.966228 -1.564565 2.590186 -2.290701 -10.367682 -6.939128 -48.492680 -44.439642 -18.518892 -25.752064 -35.897719 24.596512 -21.756132 -19.548094 -22.341269 3.920739 9.544564 -7.420680 -60.455459 40.396245 23.055461 -38.452596 30.470331 -21.504793 -66.235404 -2.427899 -28.893838 4.635698 1.033675 -0.992173 6.130712 -2.270914 -9.125868 -4.244043 1.554703 1.408705 -0.021501 -0.079699 -0.005283 6.972294 1.042810 2.148124 2.681078 -0.731519 -0.207484 -4.041372 0.230975 0.934674 0.014723 0.021914 -0.001050 
-9.227939 -7.172645 83.141312 1.602042 5.826857 -107.526855 3.642570 0.668174 2.259215 1.617104 0.286023 1.018284 1.617104 0.286023 1.018285 1.213307 0.211825 0.764475 24.256918 -0.632108 1.711105 8.890703 -1.581869 2.979986 -2.444954 -10.325130 -6.977298 -48.497546 -44.113866 -18.269144 -25.892554 -36.118652 24.623033 -21.866618 -19.404803 -22.231421 3.827753 9.479878 -7.451946 -59.936529 40.503059 22.482100 -37.825922 30.456421 -22.056559 -65.592765 -2.532927 -29.194175 4.658139 1.045299 -1.017431 6.031694 -2.273149 -9.206659 -4.194183 1.540791 1.421058 -0.017407 -0.056675 -0.003726 6.952270 1.039086 2.178211 2.624028 -0.712463 -0.207412 -3.986543 0.252669 0.820136 0.000625 -0.007299 -0.002163 
-9.233054 -7.183096 83.147362 1.580024 5.784681 -107.413461 3.615199 0.682042 2.251838 1.605455 0.291426 1.013091 1.605456 0.291426 1.013091 1.204576 0.215911 0.760586 24.211156 -0.631604 1.862773 8.809767 -1.619565 3.257732 -2.579336 -10.263930 -7.014755 -48.489022 -43.758044 -18.023696 -26.123894 -36.355837 24.673102 -21.941880 -19.237460 -22.122272 3.739291 9.424749 -7.464744 -59.317878 40.625794 21.848747 -36.955548 30.425146 -22.722327 -64.916426 -2.589531 -29.355972 4.691035 1.045904 -1.065969 5.895532 -2.264570 -9.311490 -4.131686 1.512034 1.454021 -0.014468 -0.031401 -0.001931 6.923603 1.027194 2.172975 2.559823 -0.692340 -0.190103 -3.925234 0.290430 0.721239 -0.013988 -0.042694 -0.004154 
-9.245319 -7.189819 83.152824 1.555099 5.735535 -107.279152 3.581638 0.692536 2.238932 1.590797 0.295843 1.006630 1.590797 0.295843 1.006629 1.193586 0.219264 0.755747 24.160951 -0.644920 1.960888 8.719604 -1.669591 3.433826 -2.687251 -10.195428 -7.031309 -48.544060 -43.371647 -17.826637 -26.421829 -36.553444 24.754433 -21.993177 -18.900221 -21.953669 3.730973 9.358769 -7.485385 -58.710783 40.746764 21.212300 -35.863981 30.395257 -23.489736 -64.129131 -2.665480 -29.426412 4.747086 1.038832 -1.146056 5.714460 -2.242429 -9.435493 -4.058883 1.468111 1.509150 -0.008836 -0.003872 -0.000673 6.902173 1.009677 2.149508 2.470995 -0.668109 -0.189431 -3.848353 0.341434 0.634307 -0.029895 -0.082054 -0.004590 
-9.264661 -7.194062 83.156906 1.526097 5.678967 -107.125035 3.544985 0.705212 2.224769 1.574805 0.301248 1.000352 1.574805 0.301248 1.000354 1.181598 0.223361 0.751045 24.107754 -0.673890 2.009231 8.622864 -1.736137 3.514721 -2.828330 -10.140037 -7.048641 -48.691835 -42.929679 -17.704258 -26.758729 -36.691708 24.827476 -22.074157 -18.446362 -21.723700 3.680143 9.289957 -7.479846 -57.989126 40.904036 20.572504 -34.653433 30.420037 -24.348100 -63.177351 -2.791358 -29.485951 4.821486 1.033888 -1.256522 5.495727 -2.219053 -9.563511 -3.980799 1.415918 1.602494 0.000638 0.023433 -0.000419 6.889134 0.994670 2.119632 2.353082 -0.652709 -0.212955 -3.757194 0.407588 0.546616 -0.043784 -0.121544 -0.003938 
